<svg width="30" height="30" viewBox="0 0 30 30" fill="none" xmlns="http://www.w3.org/2000/svg">
<mask id="mask0_222_377" style="mask-type:alpha" maskUnits="userSpaceOnUse" x="0" y="0" width="30" height="30">
<rect width="30" height="30" fill="#D9D9D9"/>
</mask>
<g mask="url(#mask0_222_377)">
<path d="M11.0833 26.25H5.83331C5.27081 26.25 4.78297 26.0434 4.36978 25.6302C3.95659 25.217 3.75 24.7292 3.75 24.1667V18.9167C4.69444 18.8472 5.51041 18.5017 6.19791 17.8802C6.88541 17.2587 7.22916 16.4861 7.22916 15.5625C7.22916 14.6389 6.88541 13.8663 6.19791 13.2448C5.51041 12.6233 4.69444 12.2778 3.75 12.2083V6.95831C3.75 6.39581 3.95659 5.90797 4.36978 5.49478C4.78297 5.08159 5.27081 4.875 5.83331 4.875H11.1875C11.3403 4.02777 11.7153 3.31597 12.3125 2.73959C12.9097 2.1632 13.6319 1.875 14.4792 1.875C15.3264 1.875 16.0486 2.1632 16.6458 2.73959C17.2431 3.31597 17.6181 4.02777 17.7708 4.875H23.0417C23.6042 4.875 24.092 5.08159 24.5052 5.49478C24.9184 5.90797 25.125 6.39581 25.125 6.95831V12.2292C25.9722 12.3819 26.6736 12.7708 27.2292 13.3958C27.7847 14.0208 28.0625 14.7569 28.0625 15.6042C28.0625 16.4514 27.7847 17.1632 27.2292 17.7396C26.6736 18.316 25.9722 18.6806 25.125 18.8333V24.1667C25.125 24.7292 24.9184 25.217 24.5052 25.6302C24.092 26.0434 23.6042 26.25 23.0417 26.25H17.7917C17.7222 25.2361 17.3663 24.4028 16.724 23.75C16.0816 23.0972 15.3194 22.7708 14.4375 22.7708C13.5556 22.7708 12.7934 23.0972 12.151 23.75C11.5087 24.4028 11.1528 25.2361 11.0833 26.25Z" fill="#EFB359"/>
</g>
</svg>
